{
    "asset" : {
        "generator" : "Khronos glTF Blender I/O v1.5.17",
        "version" : "2.0"
    },
    "scene" : 0,
    "scenes" : [
        {
            "name" : "Scene",
            "nodes" : [
                0
            ]
        }
    ],
    "nodes" : [
        {
            "mesh" : 0,
            "name" : "Pancake"
        }
    ],
    "materials" : [
        {
            "doubleSided" : true,
            "name" : "Texture",
            "pbrMetallicRoughness" : {
                "baseColorTexture" : {
                    "index" : 0
                },
                "metallicFactor" : 0
            }
        }
    ],
    "meshes" : [
        {
            "name" : "Cube.008",
            "primitives" : [
                {
                    "attributes" : {
                        "POSITION" : 0,
                        "NORMAL" : 1,
                        "TEXCOORD_0" : 2
                    },
                    "indices" : 3,
                    "material" : 0
                }
            ]
        }
    ],
    "textures" : [
        {
            "sampler" : 0,
            "source" : 0
        }
    ],
    "images" : [
        {
            "bufferView" : 4,
            "mimeType" : "image/png",
            "name" : "Pancake_Orange"
        }
    ],
    "accessors" : [
        {
            "bufferView" : 0,
            "componentType" : 5126,
            "count" : 3510,
            "max" : [
                5.251112937927246,
                1.6240941286087036,
                4.9803667068481445
            ],
            "min" : [
                -5.251111030578613,
                -0.9750590920448303,
                -3.2524118423461914
            ],
            "type" : "VEC3"
        },
        {
            "bufferView" : 1,
            "componentType" : 5126,
            "count" : 3510,
            "type" : "VEC3"
        },
        {
            "bufferView" : 2,
            "componentType" : 5126,
            "count" : 3510,
            "type" : "VEC2"
        },
        {
            "bufferView" : 3,
            "componentType" : 5123,
            "count" : 8064,
            "type" : "SCALAR"
        }
    ],
    "bufferViews" : [
        {
            "buffer" : 0,
            "byteLength" : 42120,
            "byteOffset" : 0
        },
        {
            "buffer" : 0,
            "byteLength" : 42120,
            "byteOffset" : 42120
        },
        {
            "buffer" : 0,
            "byteLength" : 28080,
            "byteOffset" : 84240
        },
        {
            "buffer" : 0,
            "byteLength" : 16128,
            "byteOffset" : 112320
        },
        {
            "buffer" : 0,
            "byteLength" : 3372112,
            "byteOffset" : 128448
        }
    ],
    "samplers" : [
        {
            "magFilter" : 9729,
            "minFilter" : 9987
        }
    ],
    "buffers" : [
        {
            "byteLength" : 3500560,
            "uri" : "Pancake.bin"
        }
    ]
}
