o part_00
v -0.525731 0.850651 0.000000
v -0.615642 0.783843 0.081086
v -0.484442 0.864929 0.131200
vn 0.0 0.0 1.0
vt 0.0 0.0
vt 1.0 0.0
vt 0.5 1.0
f 1/1/1 2/2/1 3/3/1
o part_01
v -0.615642 0.783843 0.081086
v -0.693780 0.702046 0.160622
v -0.571252 0.792649 0.213023
vn 0.0 0.0 1.0
vt 0.0 0.0
vt 1.0 0.0
vt 0.5 1.0
f 4/1/1 5/2/1 6/3/1
o part_02
v -0.484442 0.864929 0.131200
v -0.571252 0.792649 0.213023
v -0.433889 0.862668 0.259892
vn 0.0 0.0 1.0
vt 0.0 0.0
vt 1.0 0.0
vt 0.5 1.0
f 7/1/1 8/2/1 9/3/1
o part_03
v -0.615642 0.783843 0.081086
v -0.571252 0.792649 0.213023
v -0.484442 0.864929 0.131200
vn 0.0 0.0 1.0
vt 0.0 0.0
vt 1.0 0.0
vt 0.5 1.0
f 10/1/1 11/2/1 12/3/1
o part_04
v -0.693780 0.702046 0.160622
v -0.758652 0.606825 0.237086
v -0.647412 0.702310 0.296005
vn 0.0 0.0 1.0
vt 0.0 0.0
vt 1.0 0.0
vt 0.5 1.0
f 13/1/1 14/2/1 15/3/1
o part_05
v -0.758652 0.606825 0.237086
v -0.809017 0.500000 0.309017
v -0.707107 0.601501 0.371748
vn 0.0 0.0 1.0
vt 0.0 0.0
vt 1.0 0.0
vt 0.5 1.0
f 16/1/1 17/2/1 18/3/1
o part_06
v -0.647412 0.702310 0.296005
v -0.707107 0.601501 0.371748
v -0.587785 0.688191 0.425325
vn 0.0 0.0 1.0
vt 0.0 0.0
vt 1.0 0.0
vt 0.5 1.0
f 19/1/1 20/2/1 21/3/1
o part_07
v -0.758652 0.606825 0.237086
v -0.707107 0.601501 0.371748
v -0.647412 0.702310 0.296005
vn 0.0 0.0 1.0
vt 0.0 0.0
vt 1.0 0.0
vt 0.5 1.0
f 22/1/1 23/2/1 24/3/1
o part_08
v -0.433889 0.862668 0.259892
v -0.516122 0.783452 0.346153
v -0.375039 0.843911 0.383614
vn 0.0 0.0 1.0
vt 0.0 0.0
vt 1.0 0.0
vt 0.5 1.0
f 25/1/1 26/2/1 27/3/1
o part_09
v -0.516122 0.783452 0.346153
v -0.587785 0.688191 0.425325
v -0.453990 0.757935 0.468430
vn 0.0 0.0 1.0
vt 0.0 0.0
vt 1.0 0.0
vt 0.5 1.0
f 28/1/1 29/2/1 30/3/1
o part_10
v -0.375039 0.843911 0.383614
v -0.453990 0.757935 0.468430
v -0.309017 0.809017 0.500000
vn 0.0 0.0 1.0
vt 0.0 0.0
vt 1.0 0.0
vt 0.5 1.0
f 31/1/1 32/2/1 33/3/1
o part_11
v -0.516122 0.783452 0.346153
v -0.453990 0.757935 0.468430
v -0.375039 0.843911 0.383614
vn 0.0 0.0 1.0
vt 0.0 0.0
vt 1.0 0.0
vt 0.5 1.0
f 34/1/1 35/2/1 36/3/1
o part_12
v -0.693780 0.702046 0.160622
v -0.647412 0.702310 0.296005
v -0.571252 0.792649 0.213023
vn 0.0 0.0 1.0
vt 0.0 0.0
vt 1.0 0.0
vt 0.5 1.0
f 37/1/1 38/2/1 39/3/1
o part_13
v -0.647412 0.702310 0.296005
v -0.587785 0.688191 0.425325
v -0.516122 0.783452 0.346153
vn 0.0 0.0 1.0
vt 0.0 0.0
vt 1.0 0.0
vt 0.5 1.0
f 40/1/1 41/2/1 42/3/1
o part_14
v -0.571252 0.792649 0.213023
v -0.516122 0.783452 0.346153
v -0.433889 0.862668 0.259892
vn 0.0 0.0 1.0
vt 0.0 0.0
vt 1.0 0.0
vt 0.5 1.0
f 43/1/1 44/2/1 45/3/1
o part_15
v -0.647412 0.702310 0.296005
v -0.516122 0.783452 0.346153
v -0.571252 0.792649 0.213023
vn 0.0 0.0 1.0
vt 0.0 0.0
vt 1.0 0.0
vt 0.5 1.0
f 46/1/1 47/2/1 48/3/1
o part_16
v -0.809017 0.500000 0.309017
v -0.843911 0.383614 0.375039
v -0.757935 0.468430 0.453990
vn 0.0 0.0 1.0
vt 0.0 0.0
vt 1.0 0.0
vt 0.5 1.0
f 49/1/1 50/2/1 51/3/1
o part_17
v -0.843911 0.383614 0.375039
v -0.862668 0.259892 0.433889
v -0.783452 0.346153 0.516122
vn 0.0 0.0 1.0
vt 0.0 0.0
vt 1.0 0.0
vt 0.5 1.0
f 52/1/1 53/2/1 54/3/1
o part_18
v -0.757935 0.468430 0.453990
v -0.783452 0.346153 0.516122
v -0.688191 0.425325 0.587785
vn 0.0 0.0 1.0
vt 0.0 0.0
vt 1.0 0.0
vt 0.5 1.0
f 55/1/1 56/2/1 57/3/1
o part_19
v -0.843911 0.383614 0.375039
v -0.783452 0.346153 0.516122
v -0.757935 0.468430 0.453990
vn 0.0 0.0 1.0
vt 0.0 0.0
vt 1.0 0.0
vt 0.5 1.0
f 58/1/1 59/2/1 60/3/1
o part_20
v -0.862668 0.259892 0.433889
v -0.864929 0.131200 0.484442
v -0.792649 0.213023 0.571252
vn 0.0 0.0 1.0
vt 0.0 0.0
vt 1.0 0.0
vt 0.5 1.0
f 61/1/1 62/2/1 63/3/1
o part_21
v -0.864929 0.131200 0.484442
v -0.850651 0.000000 0.525731
v -0.783843 0.081086 0.615642
vn 0.0 0.0 1.0
vt 0.0 0.0
vt 1.0 0.0
vt 0.5 1.0
f 64/1/1 65/2/1 66/3/1
o part_22
v -0.792649 0.213023 0.571252
v -0.783843 0.081086 0.615642
v -0.702046 0.160622 0.693780
vn 0.0 0.0 1.0
vt 0.0 0.0
vt 1.0 0.0
vt 0.5 1.0
f 67/1/1 68/2/1 69/3/1
o part_23
v -0.864929 0.131200 0.484442
v -0.783843 0.081086 0.615642
v -0.792649 0.213023 0.571252
vn 0.0 0.0 1.0
vt 0.0 0.0
vt 1.0 0.0
vt 0.5 1.0
f 70/1/1 71/2/1 72/3/1
o part_24
v -0.688191 0.425325 0.587785
v -0.702310 0.296005 0.647412
v -0.601501 0.371748 0.707107
vn 0.0 0.0 1.0
vt 0.0 0.0
vt 1.0 0.0
vt 0.5 1.0
f 73/1/1 74/2/1 75/3/1
o part_25
v -0.702310 0.296005 0.647412
v -0.702046 0.160622 0.693780
v -0.606825 0.237086 0.758652
vn 0.0 0.0 1.0
vt 0.0 0.0
vt 1.0 0.0
vt 0.5 1.0
f 76/1/1 77/2/1 78/3/1
o part_26
v -0.601501 0.371748 0.707107
v -0.606825 0.237086 0.758652
v -0.500000 0.309017 0.809017
vn 0.0 0.0 1.0
vt 0.0 0.0
vt 1.0 0.0
vt 0.5 1.0
f 79/1/1 80/2/1 81/3/1
o part_27
v -0.702310 0.296005 0.647412
v -0.606825 0.237086 0.758652
v -0.601501 0.371748 0.707107
vn 0.0 0.0 1.0
vt 0.0 0.0
vt 1.0 0.0
vt 0.5 1.0
f 82/1/1 83/2/1 84/3/1
o part_28
v -0.862668 0.259892 0.433889
v -0.792649 0.213023 0.571252
v -0.783452 0.346153 0.516122
vn 0.0 0.0 1.0
vt 0.0 0.0
vt 1.0 0.0
vt 0.5 1.0
f 85/1/1 86/2/1 87/3/1
o part_29
v -0.792649 0.213023 0.571252
v -0.702046 0.160622 0.693780
v -0.702310 0.296005 0.647412
vn 0.0 0.0 1.0
vt 0.0 0.0
vt 1.0 0.0
vt 0.5 1.0
f 88/1/1 89/2/1 90/3/1
o part_30
v -0.783452 0.346153 0.516122
v -0.702310 0.296005 0.647412
v -0.688191 0.425325 0.587785
vn 0.0 0.0 1.0
vt 0.0 0.0
vt 1.0 0.0
vt 0.5 1.0
f 91/1/1 92/2/1 93/3/1
o part_31
v -0.792649 0.213023 0.571252
v -0.702310 0.296005 0.647412
v -0.783452 0.346153 0.516122
vn 0.0 0.0 1.0
vt 0.0 0.0
vt 1.0 0.0
vt 0.5 1.0
f 94/1/1 95/2/1 96/3/1