# Blender 4.4.1
# www.blender.org
mtllib glass_broken.mtl
o 平面
o 平面.001
v -0.746453 0.000000 -0.170927
v 0.615704 0.000000 -0.170927
v 0.130749 0.000000 0.341854
vn -0.0000 1.0000 -0.0000
vt 0.212837 1.000000
vt 0.000000 1.000000
vt 0.137063 0.857561
s 0
f 2/1/1 1/2/1 3/3/1
o 平面.002
v 0.034062 0.000000 -0.510935
v -0.450893 0.000000 0.001847
v 0.416831 0.000000 0.509088
vn -0.0000 1.0000 -0.0000
vt 0.137063 0.857561
vt 0.272645 0.716661
vt 0.212837 1.000000
s 0
f 5/4/2 6/5/2 4/6/2
o 平面.003
v 0.470096 0.000000 -0.340007
v -0.426432 0.000000 -0.340007
v -0.043664 0.000000 0.680015
vn -0.0000 1.0000 -0.0000
vt 0.272645 0.716661
vt 0.352920 1.000000
vt 0.212837 1.000000
s 0
f 9/7/3 7/8/3 8/9/3
o 平面.004
v 0.041767 0.000000 -0.855817
v -0.471993 0.000000 0.164206
v 0.430226 0.000000 0.691611
vn -0.0000 1.0000 -0.0000
vt 0.413616 0.570159
vt 0.352920 1.000000
vt 0.272645 0.716661
s 0
f 12/10/4 10/11/4 11/12/4
o 平面.005
v 0.471418 0.000000 -0.265350
v -0.594386 0.000000 -0.265350
v 0.122968 0.000000 0.530701
vn -0.0000 1.0000 -0.0000
vt 0.519451 1.000000
vt 0.352920 1.000000
vt 0.465006 0.778875
s 0
f 13/13/5 14/14/5 15/15/5
o 平面.006
v -0.368604 0.000000 -0.781160
v 0.019855 0.000000 0.766268
v 0.348750 0.000000 0.014892
vn -0.0000 1.0000 -0.0000
vt 0.465006 0.778875
vt 0.352920 1.000000
vt 0.413616 0.570159
s 0
f 18/16/6 16/17/6 17/18/6
o 平面.007
v 0.190264 0.000000 -0.790483
v -0.487080 0.000000 0.756945
v -0.158186 0.000000 0.005569
v 0.455002 0.000000 0.027969
vn -0.0000 1.0000 -0.0000
vt 0.560817 0.772652
vt 0.465006 0.778875
vt 0.413616 0.570159
vt 0.519451 1.000000
s 0
f 22/19/7 21/20/7 20/21/7
f 22/19/7 19/22/7 21/20/7
o 平面.008
v 0.098554 0.000000 -0.361000
v -0.649863 0.000000 -0.361000
v 0.551310 0.000000 0.721999
vn -0.0000 1.0000 -0.0000
vt 0.636392 1.000000
vt 0.519451 1.000000
vt 0.707135 0.699167
s 0
f 23/23/8 24/24/8 25/25/8
o 平面.009
v -0.487551 0.000000 -0.849667
v 0.713623 0.000000 0.233332
v -0.003259 0.000000 0.647549
v -0.222813 0.000000 -0.031215
vn -0.0000 1.0000 -0.0000
vt 0.707135 0.699167
vt 0.560817 0.772652
vt 0.595122 0.584107
vt 0.519451 1.000000
s 0
f 27/26/9 29/27/9 28/28/9
f 27/26/9 26/29/9 29/27/9
o 平面.010
v 0.516724 0.000000 -0.361000
v -0.484740 0.000000 -0.361000
v -0.031984 0.000000 0.721999
vn -0.0000 1.0000 -0.0000
vt 0.707135 0.699167
vt 0.792870 1.000000
vt 0.636392 1.000000
s 0
f 32/30/10 30/31/10 31/32/10
o 平面.011
v 0.083946 0.000000 -0.559140
v 0.380816 0.000000 0.035281
v -0.464762 0.000000 0.523859
vn -0.0000 1.0000 -0.0000
vt 0.839256 0.834883
vt 0.792870 1.000000
vt 0.707135 0.699167
s 0
f 34/33/11 33/34/11 35/35/11
o 平面.012
v 0.784796 0.000000 -0.198140
v -0.540833 0.000000 -0.198140
v -0.243963 0.000000 0.396281
vn -0.0000 1.0000 -0.0000
vt 1.000000 1.000000
vt 0.792870 1.000000
vt 0.839256 0.834883
s 0
f 36/36/12 37/37/12 38/38/12
o 平面.013
v 0.661933 0.000000 -0.733266
v -0.366827 0.000000 -0.138846
v -0.295106 0.000000 0.872112
vn -0.0000 1.0000 -0.0000
vt 0.839256 0.834883
vt 0.850463 0.554061
vt 1.000000 1.000000
s 0
f 40/39/13 41/40/13 39/41/13
o 平面.014
v 0.319013 0.000000 -0.990179
v 0.319013 0.000000 0.374979
v -0.638026 0.000000 0.615199
vn -0.0000 1.0000 -0.0000
vt 0.850463 0.554061
vt 1.000000 0.620789
vt 1.000000 1.000000
s 0
f 44/42/14 43/43/14 42/44/14
o 平面.015
v 0.319013 0.000000 0.429228
v 0.319013 0.000000 -0.334724
v -0.638026 0.000000 -0.094504
vn -0.0000 1.0000 -0.0000
vt 1.000000 0.408580
vt 1.000000 0.620789
vt 0.850463 0.554061
s 0
f 45/45/15 46/46/15 47/47/15
o 平面.016
v 0.676240 0.000000 -0.192720
v -0.171823 0.000000 0.819629
v -0.223618 0.000000 0.089544
v -0.280798 0.000000 -0.716453
vn -0.0000 1.0000 -0.0000
vt 0.859397 0.330174
vt 1.000000 0.408580
vt 0.850463 0.554061
vt 0.867490 0.127372
s 0
f 50/48/16 48/49/16 51/50/16
f 50/48/16 49/51/16 48/49/16
o 平面.017
v 0.282688 0.000000 0.643143
v 0.282688 0.000000 -0.827746
v -0.565376 0.000000 0.184603
vn -0.0000 1.0000 -0.0000
vt 0.867490 0.127372
vt 1.000000 0.000000
vt 1.000000 0.408580
s 0
f 54/52/17 52/53/17 53/54/17
o 平面.018
v 0.865447 0.000000 0.152847
v -0.882830 0.000000 0.152847
v 0.017383 0.000000 -0.305693
vn -0.0000 1.0000 -0.0000
vt 0.726832 0.000000
vt 1.000000 0.000000
vt 0.867490 0.127372
s 0
f 56/55/18 55/56/18 57/57/18
o 平面.019
v -0.254211 0.000000 0.492735
v 0.646002 0.000000 0.034195
v -0.391791 0.000000 -0.526930
vn -0.0000 1.0000 -0.0000
vt 0.867490 0.127372
vt 0.705335 0.283240
vt 0.726832 0.000000
s 0
f 59/58/19 60/59/19 58/60/19
o 平面.020
v 0.363196 0.000000 0.430404
v -0.674597 0.000000 -0.130721
v 0.311401 0.000000 -0.299682
vn -0.0000 1.0000 -0.0000
vt 0.859397 0.330174
vt 0.705335 0.283240
vt 0.867490 0.127372
s 0
f 63/61/20 62/62/20 61/63/20
o 平面.021
v -0.638272 0.000000 0.381306
v 0.347726 0.000000 0.212345
v 0.290546 0.000000 -0.593651
vn -0.0000 1.0000 -0.0000
vt 0.859397 0.330174
vt 0.850463 0.554061
vt 0.705335 0.283240
s 0
f 65/64/21 66/65/21 64/66/21
o 平面.022
v -0.430600 0.000000 0.605331
v -0.067619 0.000000 -0.235705
v 0.498219 0.000000 -0.369626
vn -0.0000 1.0000 -0.0000
vt 0.762051 0.516861
vt 0.705335 0.283240
vt 0.850463 0.554061
s 0
f 68/67/22 67/68/22 69/69/22
o 平面.023
v 0.140798 0.000000 -0.718612
v -0.353318 0.000000 0.426267
v 0.212519 0.000000 0.292345
vn -0.0000 1.0000 -0.0000
vt 0.762051 0.516861
vt 0.850463 0.554061
vt 0.839256 0.834883
s 0
f 71/70/23 72/71/23 70/72/23
o 平面.024
v 0.725539 0.000000 -0.634063
v -0.120040 0.000000 -0.145485
v -0.836921 0.000000 0.268732
v 0.231422 0.000000 0.510816
vn -0.0000 1.0000 -0.0000
vt 0.762051 0.516861
vt 0.707135 0.699167
vt 0.595122 0.584107
vt 0.839256 0.834883
s 0
f 76/73/24 74/74/24 75/75/24
f 76/73/24 73/76/24 74/74/24
o 平面.025
v -0.591235 0.000000 -0.441734
v 0.114127 0.000000 0.641385
v 0.477108 0.000000 -0.199651
vn -0.0000 1.0000 -0.0000
vt 0.595122 0.584107
vt 0.705335 0.283240
vt 0.762051 0.516861
s 0
f 77/77/25 78/78/25 79/79/25
o 平面.026
v -0.653384 0.000000 -0.119366
v -0.025989 0.000000 -0.481877
v 0.679373 0.000000 0.601243
vn -0.0000 1.0000 -0.0000
vt 0.595122 0.584107
vt 0.497092 0.483409
vt 0.705335 0.283240
s 0
f 81/80/26 80/81/26 82/82/26
o 平面.027
v -0.494815 0.000000 -0.536250
v 0.837942 0.000000 0.184358
v -0.343127 0.000000 0.351892
vn -0.0000 1.0000 -0.0000
vt 0.497092 0.483409
vt 0.520793 0.236703
vt 0.705335 0.283240
s 0
f 83/83/27 85/84/27 84/85/27
o 平面.028
v -0.296665 0.000000 0.623932
v 0.738867 0.000000 -0.395733
v -0.442202 0.000000 -0.228199
vn -0.0000 1.0000 -0.0000
vt 0.705335 0.283240
vt 0.520793 0.236703
vt 0.543533 0.000000
s 0
f 87/86/28 88/87/28 86/88/28
o 平面.029
v -0.736214 0.000000 0.339888
v 0.436897 0.000000 0.339888
v 0.299317 0.000000 -0.679776
vn -0.0000 1.0000 -0.0000
vt 0.705335 0.283240
vt 0.543533 0.000000
vt 0.726832 0.000000
s 0
f 91/89/29 89/90/29 90/91/29
o 平面.030
v -0.513413 0.000000 0.217471
v 0.687893 0.000000 0.217471
v -0.174480 0.000000 -0.434943
vn -0.0000 1.0000 -0.0000
vt 0.355829 0.000000
vt 0.543533 0.000000
vt 0.408787 0.181226
s 0
f 92/92/30 93/93/30 94/94/30
o 平面.031
v 0.326284 0.000000 0.811204
v 0.029059 0.000000 -0.929069
v -0.536090 0.000000 0.158790
v 0.180747 0.000000 -0.040926
vn -0.0000 1.0000 -0.0000
vt 0.408787 0.181226
vt 0.520793 0.236703
vt 0.497092 0.483409
vt 0.543533 0.000000
s 0
f 97/95/31 98/96/31 96/97/31
f 97/95/31 95/98/31 98/96/31
o 平面.032
v 0.298917 0.000000 0.479951
v -0.936766 0.000000 -0.307488
v 0.637849 0.000000 -0.172463
vn -0.0000 1.0000 -0.0000
vt 0.408787 0.181226
vt 0.162753 0.218733
vt 0.355829 0.000000
s 0
f 101/99/32 100/100/32 99/101/32
o 平面.033
v -0.337687 0.000000 0.262480
v 0.786685 0.000000 0.262480
v -0.448998 0.000000 -0.524959
vn -0.0000 1.0000 -0.0000
vt 0.162753 0.218733
vt 0.180146 0.000000
vt 0.355829 0.000000
s 0
f 104/102/33 102/103/33 103/104/33
o 平面.034
v -0.503323 0.000000 -0.054604
v 0.534236 0.000000 -0.516627
v -0.030913 0.000000 0.571231
vn -0.0000 1.0000 -0.0000
vt 0.334973 0.355069
vt 0.408787 0.181226
vt 0.497092 0.483409
s 0
f 105/105/34 107/106/34 106/107/34
o 平面.035
v -0.031051 0.000000 0.224937
v -0.565293 0.000000 -0.087362
v 0.596343 0.000000 -0.137574
vn -0.0000 1.0000 -0.0000
vt 0.595122 0.584107
vt 0.413616 0.570159
vt 0.497092 0.483409
s 0
f 110/108/35 109/109/35 108/110/35
o 平面.036
v -0.701239 0.000000 0.259729
v 0.460397 0.000000 0.209518
v 0.240843 0.000000 -0.469247
vn -0.0000 1.0000 -0.0000
vt 0.560817 0.772652
vt 0.413616 0.570159
vt 0.595122 0.584107
s 0
f 113/111/36 111/112/36 112/113/36
o 平面.037
v 0.729813 0.000000 0.285480
v -0.706648 0.000000 -0.554224
v 0.195571 0.000000 -0.026819
v -0.218735 0.000000 0.295563
vn -0.0000 1.0000 -0.0000
vt 0.348881 0.480609
vt 0.413616 0.570159
vt 0.272645 0.716661
vt 0.497092 0.483409
s 0
f 117/114/37 116/115/37 115/116/37
f 117/114/37 114/117/37 116/115/37
o 平面.038
v -0.959927 0.000000 0.664077
v 0.142278 0.000000 0.173266
v 1.179837 0.000000 -0.288758
v -0.593478 0.000000 -0.269909
v 0.231289 0.000000 -0.278676
vn -0.0000 1.0000 -0.0000
vt 0.162753 0.218733
vt 0.497092 0.483409
vt 0.348881 0.480609
vt 0.220011 0.478173
vt 0.334973 0.355069
s 0
f 118/118/38 120/119/38 122/120/38
f 122/120/38 121/121/38 118/118/38
f 118/118/38 119/122/38 120/119/38
o 平面.039
v -0.892274 0.000000 0.118595
v 0.209932 0.000000 -0.372215
v 0.682342 0.000000 0.253620
vn -0.0000 1.0000 -0.0000
vt 0.408787 0.181226
vt 0.334973 0.355069
vt 0.162753 0.218733
s 0
f 125/123/39 124/124/39 123/125/39
o 平面.040
v -0.387207 0.000000 0.289107
v -0.050353 0.000000 -0.569447
v 0.437560 0.000000 0.280340
vn -0.0000 1.0000 -0.0000
vt 0.348881 0.480609
vt 0.272645 0.716661
vt 0.220011 0.478173
s 0
f 128/126/40 127/127/40 126/128/40
o 平面.041
v -1.050999 0.000000 0.136809
v 0.357073 0.000000 0.360872
v 0.693926 0.000000 -0.497681
vn -0.0000 1.0000 -0.0000
vt 0.000000 0.540413
vt 0.220011 0.478173
vt 0.272645 0.716661
s 0
f 129/129/41 130/130/41 131/131/41
o 平面.042
v -0.797410 0.000000 0.437564
v 0.947516 0.000000 -0.196926
v -0.150106 0.000000 -0.240637
vn -0.0000 1.0000 -0.0000
vt 0.000000 0.540413
vt 0.272645 0.716661
vt 0.101141 0.728802
s 0
f 132/132/42 133/133/42 134/134/42
o 平面.043
v -0.817358 0.000000 -0.627279
v 0.059845 0.000000 -0.114497
v 0.927568 0.000000 0.392743
v -0.170055 0.000000 0.349033
vn -0.0000 1.0000 -0.0000
vt 0.137063 0.857561
vt 0.101141 0.728802
vt 0.272645 0.716661
vt 0.000000 1.000000
s 0
f 136/135/43 138/136/43 137/137/43
f 136/135/43 135/138/43 138/136/43
o 平面.044
v -0.215768 0.000000 -0.876941
v -0.215768 0.000000 0.777571
v 0.431535 0.000000 0.099370
vn -0.0000 1.0000 -0.0000
vt 0.101141 0.728802
vt 0.000000 1.000000
vt 0.000000 0.540413
s 0
f 141/139/44 139/140/44 140/141/44
o 平面.045
v -0.674741 0.000000 -0.303028
v 0.733331 0.000000 -0.078965
v -0.058590 0.000000 0.381993
vn -0.0000 1.0000 -0.0000
vt 0.096274 0.350130
vt 0.220011 0.478173
vt 0.000000 0.540413
s 0
f 144/142/45 143/143/45 142/144/45
o 平面.046
v -0.414443 0.000000 -0.748782
v -0.414443 0.000000 0.403275
v 0.627179 0.000000 0.409267
v 0.201708 0.000000 -0.063760
vn -0.0000 1.0000 -0.0000
vt 0.000000 0.220398
vt 0.096274 0.350130
vt 0.000000 0.540413
vt 0.162753 0.218733
s 0
f 146/145/46 148/146/46 145/147/46
f 146/145/46 147/148/46 148/146/46
o 平面.047
v 0.019674 0.000000 0.469004
v 0.386123 0.000000 -0.464981
v -0.405797 0.000000 -0.004023
vn -0.0000 1.0000 -0.0000
vt 0.096274 0.350130
vt 0.162753 0.218733
vt 0.220011 0.478173
s 0
f 151/149/47 149/150/47 150/151/47
o 平面.048
v -0.347207 0.000000 0.526957
v -0.347207 0.000000 -0.266475
v 0.694415 0.000000 -0.260482
vn -0.0000 1.0000 -0.0000
vt 0.000000 0.220398
vt 0.000000 0.000000
vt 0.162753 0.218733
s 0
f 153/152/48 152/153/48 154/154/48
o 平面.049
v -0.731519 0.000000 0.262480
v 0.421415 0.000000 0.262480
v 0.310104 0.000000 -0.524959
vn -0.0000 1.0000 -0.0000
vt 0.000000 0.000000
vt 0.180146 0.000000
vt 0.162753 0.218733
s 0
f 155/155/49 156/156/49 157/157/49
