{
  "asset": {
    "version": "2.0",
    "generator": "SKYBREAK PrepareFlightTrackside.py"
  },
  "scene": 0,
  "scenes": [
    {
      "nodes": [
        0
      ]
    }
  ],
  "nodes": [
    {
      "mesh": 0
    }
  ],
  "meshes": [
    {
      "primitives": [
        {
          "material": 0,
          "attributes": {
            "POSITION": 0,
            "NORMAL": 1
          },
          "indices": 2
        },
        {
          "material": 1,
          "attributes": {
            "POSITION": 3,
            "NORMAL": 4
          },
          "indices": 5
        },
        {
          "material": 2,
          "attributes": {
            "POSITION": 6,
            "NORMAL": 7
          },
          "indices": 8
        }
      ]
    }
  ],
  "materials": [
    {
      "name": "dark_metal",
      "pbrMetallicRoughness": {
        "baseColorFactor": [
          0.27,
          0.3,
          0.33,
          1
        ],
        "metallicFactor": 0.1,
        "roughnessFactor": 0.7
      }
    },
    {
      "name": "painted_metal",
      "pbrMetallicRoughness": {
        "baseColorFactor": [
          0.68,
          0.7,
          0.71,
          1
        ],
        "metallicFactor": 0.1,
        "roughnessFactor": 0.7
      }
    },
    {
      "name": "amber_reflector",
      "pbrMetallicRoughness": {
        "baseColorFactor": [
          0.95,
          0.65,
          0.2,
          1
        ],
        "metallicFactor": 0.1,
        "roughnessFactor": 0.7
      }
    }
  ],
  "accessors": [
    {
      "bufferView": 0,
      "componentType": 5126,
      "count": 768,
      "type": "VEC3",
      "min": [
        -17.5,
        0.0,
        -17.4
      ],
      "max": [
        17.5,
        6.15,
        17.4
      ]
    },
    {
      "bufferView": 1,
      "componentType": 5126,
      "count": 768,
      "type": "VEC3",
      "min": [
        -1,
        -1,
        -1
      ],
      "max": [
        1,
        1,
        1
      ]
    },
    {
      "bufferView": 2,
      "componentType": 5125,
      "count": 1152,
      "type": "SCALAR",
      "min": [
        0
      ],
      "max": [
        767
      ]
    },
    {
      "bufferView": 3,
      "componentType": 5126,
      "count": 432,
      "type": "VEC3",
      "min": [
        -17.099999999999998,
        0.0725,
        -17.4
      ],
      "max": [
        17.099999999999998,
        6.25,
        17.4
      ]
    },
    {
      "bufferView": 4,
      "componentType": 5126,
      "count": 432,
      "type": "VEC3",
      "min": [
        -1,
        -1,
        -1
      ],
      "max": [
        1,
        1,
        1
      ]
    },
    {
      "bufferView": 5,
      "componentType": 5125,
      "count": 648,
      "type": "SCALAR",
      "min": [
        0
      ],
      "max": [
        431
      ]
    },
    {
      "bufferView": 6,
      "componentType": 5126,
      "count": 336,
      "type": "VEC3",
      "min": [
        -16.495,
        0.8300000000000001,
        -15.24
      ],
      "max": [
        16.495,
        6.045,
        15.24
      ]
    },
    {
      "bufferView": 7,
      "componentType": 5126,
      "count": 336,
      "type": "VEC3",
      "min": [
        -1,
        -1,
        -1
      ],
      "max": [
        1,
        1,
        1
      ]
    },
    {
      "bufferView": 8,
      "componentType": 5125,
      "count": 504,
      "type": "SCALAR",
      "min": [
        0
      ],
      "max": [
        335
      ]
    }
  ],
  "bufferViews": [
    {
      "buffer": 0,
      "byteOffset": 0,
      "byteLength": 9216
    },
    {
      "buffer": 0,
      "byteOffset": 9216,
      "byteLength": 9216
    },
    {
      "buffer": 0,
      "byteOffset": 18432,
      "byteLength": 4608
    },
    {
      "buffer": 0,
      "byteOffset": 23040,
      "byteLength": 5184
    },
    {
      "buffer": 0,
      "byteOffset": 28224,
      "byteLength": 5184
    },
    {
      "buffer": 0,
      "byteOffset": 33408,
      "byteLength": 2592
    },
    {
      "buffer": 0,
      "byteOffset": 36000,
      "byteLength": 4032
    },
    {
      "buffer": 0,
      "byteOffset": 40032,
      "byteLength": 4032
    },
    {
      "buffer": 0,
      "byteOffset": 44064,
      "byteLength": 2016
    }
  ],
  "buffers": [
    {
      "uri": "FlightTrackside.bin",
      "byteLength": 46080
    }
  ]
}
