{
    "asset" : {
        "generator" : "Khronos glTF Blender I/O v1.5.17",
        "version" : "2.0"
    },
    "scene" : 0,
    "scenes" : [
        {
            "name" : "Scene",
            "nodes" : [
                0
            ]
        }
    ],
    "nodes" : [
        {
            "mesh" : 0,
            "name" : "Imperial"
        }
    ],
    "materials" : [
        {
            "doubleSided" : true,
            "name" : "Texture",
            "pbrMetallicRoughness" : {
                "baseColorTexture" : {
                    "index" : 0
                },
                "metallicFactor" : 0
            }
        }
    ],
    "meshes" : [
        {
            "name" : "Cube.028",
            "primitives" : [
                {
                    "attributes" : {
                        "POSITION" : 0,
                        "NORMAL" : 1,
                        "TEXCOORD_0" : 2
                    },
                    "indices" : 3,
                    "material" : 0
                }
            ]
        }
    ],
    "textures" : [
        {
            "sampler" : 0,
            "source" : 0
        }
    ],
    "images" : [
        {
            "bufferView" : 4,
            "mimeType" : "image/png",
            "name" : "Imperial_Orange"
        }
    ],
    "accessors" : [
        {
            "bufferView" : 0,
            "componentType" : 5126,
            "count" : 3673,
            "max" : [
                3.864760398864746,
                1.9892470836639404,
                11.879201889038086
            ],
            "min" : [
                -3.864760398864746,
                -1.314197063446045,
                -6.669183254241943
            ],
            "type" : "VEC3"
        },
        {
            "bufferView" : 1,
            "componentType" : 5126,
            "count" : 3673,
            "type" : "VEC3"
        },
        {
            "bufferView" : 2,
            "componentType" : 5126,
            "count" : 3673,
            "type" : "VEC2"
        },
        {
            "bufferView" : 3,
            "componentType" : 5123,
            "count" : 7926,
            "type" : "SCALAR"
        }
    ],
    "bufferViews" : [
        {
            "buffer" : 0,
            "byteLength" : 44076,
            "byteOffset" : 0
        },
        {
            "buffer" : 0,
            "byteLength" : 44076,
            "byteOffset" : 44076
        },
        {
            "buffer" : 0,
            "byteLength" : 29384,
            "byteOffset" : 88152
        },
        {
            "buffer" : 0,
            "byteLength" : 15852,
            "byteOffset" : 117536
        },
        {
            "buffer" : 0,
            "byteLength" : 3284228,
            "byteOffset" : 133388
        }
    ],
    "samplers" : [
        {
            "magFilter" : 9729,
            "minFilter" : 9987
        }
    ],
    "buffers" : [
        {
            "byteLength" : 3417616,
            "uri" : "Imperial.bin"
        }
    ]
}
