mtllib sphere.mtl
o Sphere
v 0.000000 1.000000 0.000000
v 0.000000 1.000000 0.000000
v 0.000000 1.000000 0.000000
v 0.000000 1.000000 0.000000
v 0.000000 1.000000 0.000000
v 0.000000 1.000000 0.000000
v 0.000000 1.000000 0.000000
v 0.000000 1.000000 0.000000
v 0.000000 1.000000 0.000000
v 0.000000 0.707107 0.707107
v 0.500000 0.707107 0.500000
v 0.707107 0.707107 0.000000
v 0.500000 0.707107 -0.500000
v 0.000000 0.707107 -0.707107
v -0.500000 0.707107 -0.500000
v -0.707107 0.707107 0.000000
v -0.500000 0.707107 0.500000
v 0.000000 0.707107 0.707107
v 0.000000 0.000000 1.000000
v 0.707107 0.000000 0.707107
v 1.000000 0.000000 0.000000
v 0.707107 0.000000 -0.707107
v 0.000000 0.000000 -1.000000
v -0.707107 0.000000 -0.707107
v -1.000000 0.000000 0.000000
v -0.707107 0.000000 0.707107
v 0.000000 0.000000 1.000000
v 0.000000 -0.707107 0.707107
v 0.500000 -0.707107 0.500000
v 0.707107 -0.707107 0.000000
v 0.500000 -0.707107 -0.500000
v 0.000000 -0.707107 -0.707107
v -0.500000 -0.707107 -0.500000
v -0.707107 -0.707107 0.000000
v -0.500000 -0.707107 0.500000
v 0.000000 -0.707107 0.707107
v 0.000000 -1.000000 0.000000
v 0.000000 -1.000000 0.000000
v 0.000000 -1.000000 0.000000
v 0.000000 -1.000000 0.000000
v 0.000000 -1.000000 0.000000
v 0.000000 -1.000000 0.000000
v 0.000000 -1.000000 0.000000
v 0.000000 -1.000000 0.000000
v 0.000000 -1.000000 0.000000
vt 0.000000 1.000000
vn 0.000000 1.000000 0.000000
vt 0.125000 1.000000
vn 0.000000 1.000000 0.000000
vt 0.250000 1.000000
vn 0.000000 1.000000 0.000000
vt 0.375000 1.000000
vn 0.000000 1.000000 0.000000
vt 0.500000 1.000000
vn 0.000000 1.000000 0.000000
vt 0.625000 1.000000
vn 0.000000 1.000000 0.000000
vt 0.750000 1.000000
vn 0.000000 1.000000 0.000000
vt 0.875000 1.000000
vn 0.000000 1.000000 0.000000
vt 1.000000 1.000000
vn 0.000000 1.000000 0.000000
vt 0.000000 0.750000
vn 0.000000 0.707107 0.707107
vt 0.125000 0.750000
vn 0.500000 0.707107 0.500000
vt 0.250000 0.750000
vn 0.707107 0.707107 0.000000
vt 0.375000 0.750000
vn 0.500000 0.707107 -0.500000
vt 0.500000 0.750000
vn 0.000000 0.707107 -0.707107
vt 0.625000 0.750000
vn -0.500000 0.707107 -0.500000
vt 0.750000 0.750000
vn -0.707107 0.707107 0.000000
vt 0.875000 0.750000
vn -0.500000 0.707107 0.500000
vt 1.000000 0.750000
vn 0.000000 0.707107 0.707107
vt 0.000000 0.500000
vn 0.000000 0.000000 1.000000
vt 0.125000 0.500000
vn 0.707107 0.000000 0.707107
vt 0.250000 0.500000
vn 1.000000 0.000000 0.000000
vt 0.375000 0.500000
vn 0.707107 0.000000 -0.707107
vt 0.500000 0.500000
vn 0.000000 0.000000 -1.000000
vt 0.625000 0.500000
vn -0.707107 0.000000 -0.707107
vt 0.750000 0.500000
vn -1.000000 0.000000 0.000000
vt 0.875000 0.500000
vn -0.707107 0.000000 0.707107
vt 1.000000 0.500000
vn 0.000000 0.000000 1.000000
vt 0.000000 0.250000
vn 0.000000 -0.707107 0.707107
vt 0.125000 0.250000
vn 0.500000 -0.707107 0.500000
vt 0.250000 0.250000
vn 0.707107 -0.707107 0.000000
vt 0.375000 0.250000
vn 0.500000 -0.707107 -0.500000
vt 0.500000 0.250000
vn 0.000000 -0.707107 -0.707107
vt 0.625000 0.250000
vn -0.500000 -0.707107 -0.500000
vt 0.750000 0.250000
vn -0.707107 -0.707107 0.000000
vt 0.875000 0.250000
vn -0.500000 -0.707107 0.500000
vt 1.000000 0.250000
vn 0.000000 -0.707107 0.707107
vt 0.000000 0.000000
vn 0.000000 -1.000000 0.000000
vt 0.125000 0.000000
vn 0.000000 -1.000000 0.000000
vt 0.250000 0.000000
vn 0.000000 -1.000000 0.000000
vt 0.375000 0.000000
vn 0.000000 -1.000000 0.000000
vt 0.500000 0.000000
vn 0.000000 -1.000000 0.000000
vt 0.625000 0.000000
vn 0.000000 -1.000000 0.000000
vt 0.750000 0.000000
vn 0.000000 -1.000000 0.000000
vt 0.875000 0.000000
vn 0.000000 -1.000000 0.000000
vt 1.000000 0.000000
vn 0.000000 -1.000000 0.000000
usemtl sphereMaterial
f 1/1/1 10/10/10 2/2/2
f 2/2/2 10/10/10 11/11/11
f 2/2/2 11/11/11 3/3/3
f 3/3/3 11/11/11 12/12/12
f 3/3/3 12/12/12 4/4/4
f 4/4/4 12/12/12 13/13/13
f 4/4/4 13/13/13 5/5/5
f 5/5/5 13/13/13 14/14/14
f 5/5/5 14/14/14 6/6/6
f 6/6/6 14/14/14 15/15/15
f 6/6/6 15/15/15 7/7/7
f 7/7/7 15/15/15 16/16/16
f 7/7/7 16/16/16 8/8/8
f 8/8/8 16/16/16 17/17/17
f 8/8/8 17/17/17 9/9/9
f 9/9/9 17/17/17 18/18/18
f 10/10/10 19/19/19 11/11/11
f 11/11/11 19/19/19 20/20/20
f 11/11/11 20/20/20 12/12/12
f 12/12/12 20/20/20 21/21/21
f 12/12/12 21/21/21 13/13/13
f 13/13/13 21/21/21 22/22/22
f 13/13/13 22/22/22 14/14/14
f 14/14/14 22/22/22 23/23/23
f 14/14/14 23/23/23 15/15/15
f 15/15/15 23/23/23 24/24/24
f 15/15/15 24/24/24 16/16/16
f 16/16/16 24/24/24 25/25/25
f 16/16/16 25/25/25 17/17/17
f 17/17/17 25/25/25 26/26/26
f 17/17/17 26/26/26 18/18/18
f 18/18/18 26/26/26 27/27/27
f 19/19/19 28/28/28 20/20/20
f 20/20/20 28/28/28 29/29/29
f 20/20/20 29/29/29 21/21/21
f 21/21/21 29/29/29 30/30/30
f 21/21/21 30/30/30 22/22/22
f 22/22/22 30/30/30 31/31/31
f 22/22/22 31/31/31 23/23/23
f 23/23/23 31/31/31 32/32/32
f 23/23/23 32/32/32 24/24/24
f 24/24/24 32/32/32 33/33/33
f 24/24/24 33/33/33 25/25/25
f 25/25/25 33/33/33 34/34/34
f 25/25/25 34/34/34 26/26/26
f 26/26/26 34/34/34 35/35/35
f 26/26/26 35/35/35 27/27/27
f 27/27/27 35/35/35 36/36/36
f 28/28/28 37/37/37 29/29/29
f 29/29/29 37/37/37 38/38/38
f 29/29/29 38/38/38 30/30/30
f 30/30/30 38/38/38 39/39/39
f 30/30/30 39/39/39 31/31/31
f 31/31/31 39/39/39 40/40/40
f 31/31/31 40/40/40 32/32/32
f 32/32/32 40/40/40 41/41/41
f 32/32/32 41/41/41 33/33/33
f 33/33/33 41/41/41 42/42/42
f 33/33/33 42/42/42 34/34/34
f 34/34/34 42/42/42 43/43/43
f 34/34/34 43/43/43 35/35/35
f 35/35/35 43/43/43 44/44/44
f 35/35/35 44/44/44 36/36/36
f 36/36/36 44/44/44 45/45/45
